<?xml version="1.0" encoding="UTF-8" standalone="no"?>
<svg
   xmlns:dc="http://purl.org/dc/elements/1.1/"
   xmlns:cc="http://creativecommons.org/ns#"
   xmlns:rdf="http://www.w3.org/1999/02/22-rdf-syntax-ns#"
   xmlns:svg="http://www.w3.org/2000/svg"
   xmlns="http://www.w3.org/2000/svg"
   xmlns:sodipodi="http://sodipodi.sourceforge.net/DTD/sodipodi-0.dtd"
   xmlns:inkscape="http://www.inkscape.org/namespaces/inkscape"
   version="1.1"
   id="svg28"
   xml:space="preserve"
   width="144"
   height="96.826668"
   viewBox="0 0 144 96.826668"
   sodipodi:docname="logo_UW_block.svg"
   inkscape:version="1.0.1 (3bc2e813f5, 2020-09-07)"><metadata
     id="metadata34"><rdf:RDF><cc:Work
         rdf:about=""><dc:format>image/svg+xml</dc:format><dc:type
           rdf:resource="http://purl.org/dc/dcmitype/StillImage" /><dc:title></dc:title></cc:Work></rdf:RDF></metadata><defs
     id="defs32" /><sodipodi:namedview
     pagecolor="#ffffff"
     bordercolor="#666666"
     borderopacity="1"
     objecttolerance="10"
     gridtolerance="10"
     guidetolerance="10"
     inkscape:pageopacity="0"
     inkscape:pageshadow="2"
     inkscape:window-width="1301"
     inkscape:window-height="896"
     id="namedview30"
     showgrid="false"
     inkscape:zoom="2.4398557"
     inkscape:cx="145.01747"
     inkscape:cy="17.974338"
     inkscape:window-x="615"
     inkscape:window-y="32"
     inkscape:window-maximized="0"
     inkscape:current-layer="g36" /><g
     id="g36"
     inkscape:groupmode="layer"
     inkscape:label="ink_ext_XXXXXX"
     transform="matrix(1.3333333,0,0,-1.3333333,0,96.826667)"><g
       id="g38"
       transform="scale(0.1)"
       style="fill:#302a83;fill-opacity:1"><path
         d="m 792.59,726.199 c 0,-8.582 0,-122.383 0,-130.976 8.562,0 92.058,0 92.058,0 L 781.863,212.715 c 0,0 -125.769,506.355 -127.554,513.484 -6.868,0 -126.262,0 -133.032,0 C 519.402,719.238 383.32,212.684 383.32,212.684 l -94.66,382.539 c 0,0 87.258,0 95.852,0 0,8.593 0,122.394 0,130.976 -9.192,0 -375.31669,0 -384.512,0 0,-8.582 0,-122.383 0,-130.976 8.51172,0 85.1992,0 85.1992,0 0,0 147.0278,-588.08628 148.8048,-595.223 7.074,0 199.418,0 206.391,0 1.832,6.97266 98.523,374.543 98.523,374.543 0,0 91.875,-367.47269 93.641,-374.543 7.07,0 199.414,0 206.386,0 1.856,7.01953 156.563,595.223 156.563,595.223 0,0 75.992,0 84.492,0 0,8.593 0,122.394 0,130.976 -9.08,0 -278.328,0 -287.41,0"
         style="fill:#302a83;fill-opacity:1;fill-rule:nonzero;stroke:none"
         id="path40" /></g><path
       style="fill:#4b2e83;fill-opacity:1;stroke-width:0.181589"
       d="M 31.27065,96.57979 C 31.229471,96.504885 26.750942,78.650156 21.318363,56.902615 L 11.440946,17.361631 H 5.76587 0.09079445 V 8.7361586 0.11068572 H 25.604035 51.117276 V 8.7361586 17.361631 h -6.37679 c -5.983251,0 -6.37174,0.01961 -6.294954,0.317781 0.04501,0.174779 2.894137,11.696508 6.331393,25.603841 3.437257,13.907335 6.290414,25.284998 6.340351,25.2837 0.04994,-0.0013 4.218105,-15.384063 9.262594,-34.183919 l 9.1718,-34.18155383 8.806576,-0.0470983 8.806579,-0.0470983 2.204014,8.85415993 c 1.212207,4.8697885 5.044904,20.2923725 8.517104,34.2724105 4.503837,18.133682 6.356947,25.31537 6.466137,25.059268 0.22488,-0.527497 13.58991,-50.356423 13.58991,-50.66736 0,-0.225858 -0.88144,-0.264131 -6.08323,-0.264131 h -6.08322 V 8.7361586 0.11068572 h 19.06683 19.06684 V 8.7361586 17.361631 h -5.61702 c -5.19218,0 -5.62423,0.02404 -5.71233,0.317781 -0.0524,0.174779 -4.6372,17.600504 -10.18841,38.723834 -5.5512,21.123329 -10.21472,38.835056 -10.36336,39.359394 l -0.27027,0.953342 H 98.075229 84.392635 L 78.153271,71.754238 C 74.72162,58.025278 71.864148,46.85075 71.803332,46.921955 c -0.06081,0.07121 -3.044471,11.303539 -6.630345,24.960744 l -6.519771,24.831284 -13.653848,0.0011 c -7.509616,5.45e-4 -13.68754,-0.06029 -13.728718,-0.135191 z"
       id="path60"
       transform="matrix(0.75000002,0,0,-0.75000002,0,72.620002)" /><path
       style="fill:#4b2e83;fill-opacity:1;stroke-width:0.0129775"
       d="m 65.346991,15.496884 c 0.0064,-0.01963 0.926595,-3.443248 2.044831,-7.6080434 1.118235,-4.1647956 2.037553,-7.57716084 2.042929,-7.58303397 0.0054,-0.005873 0.02692,-0.008793 0.04787,-0.006489 l 0.0381,0.00419 -0.08909,0.33092556 c -0.049,0.182009 -0.462741,1.72373281 -0.919431,3.42605281 -0.45669,1.70232 -0.864938,3.2236043 -0.907217,3.3806317 -0.04228,0.1570275 -0.521116,1.9411056 -1.064081,3.9646183 -0.542966,2.023512 -1.014287,3.779851 -1.047381,3.902975 l -0.06017,0.223861 h -0.04902 c -0.04765,0 -0.04869,-9.99e-4 -0.03734,-0.03569 z"
       id="path911"
       transform="matrix(0.75000002,0,0,-0.75000002,0,72.620002)" /></g></svg>
