<?xml version="1.0" encoding="UTF-8" standalone="no"?>
<svg
   xmlns:dc="http://purl.org/dc/elements/1.1/"
   xmlns:cc="http://creativecommons.org/ns#"
   xmlns:rdf="http://www.w3.org/1999/02/22-rdf-syntax-ns#"
   xmlns:svg="http://www.w3.org/2000/svg"
   xmlns="http://www.w3.org/2000/svg"
   xmlns:sodipodi="http://sodipodi.sourceforge.net/DTD/sodipodi-0.dtd"
   xmlns:inkscape="http://www.inkscape.org/namespaces/inkscape"
   xml:space="preserve"
   version="1.1"
   style="image-rendering:optimizeQuality;shape-rendering:geometricPrecision;text-rendering:geometricPrecision"
   viewBox="0 0 531.19534 454.11271"
   x="0px"
   y="0px"
   fill-rule="evenodd"
   clip-rule="evenodd"
   id="svg969"
   sodipodi:docname="paw_prints_Noun_Project.svg"
   width="531.19531"
   height="454.11273"
   inkscape:version="1.0.1 (3bc2e813f5, 2020-09-07)"><metadata
     id="metadata973"><rdf:RDF><cc:Work
         rdf:about=""><dc:format>image/svg+xml</dc:format><dc:type
           rdf:resource="http://purl.org/dc/dcmitype/StillImage" /><dc:title></dc:title></cc:Work></rdf:RDF></metadata><sodipodi:namedview
     pagecolor="#ffffff"
     bordercolor="#666666"
     borderopacity="1"
     objecttolerance="10"
     gridtolerance="10"
     guidetolerance="10"
     inkscape:pageopacity="0"
     inkscape:pageshadow="2"
     inkscape:window-width="1853"
     inkscape:window-height="1025"
     id="namedview971"
     showgrid="false"
     fit-margin-top="0"
     fit-margin-left="0"
     fit-margin-right="0"
     fit-margin-bottom="0"
     inkscape:zoom="1.4927902"
     inkscape:cx="265.59188"
     inkscape:cy="283.82788"
     inkscape:window-x="67"
     inkscape:window-y="27"
     inkscape:window-maximized="1"
     inkscape:current-layer="svg969" /><defs
     id="defs941"><style
       type="text/css"
       id="style939">
   
    .fil0 {fill:black}
   
  </style></defs><g
     id="g963"
     transform="translate(-0.01812414,0.00288253)"><path
       class="fil0"
       d="m 140.48,443.21 c -7.18,2.79 -14.95,5.21 -23.14,7.04 -44.35,9.94 -84.33,0.02 -89.3,-22.16 -1.86,-8.33 1.46,-17.22 8.7,-25.56 15.77,-18.23 24.35,-38.18 26.74,-62.17 3.27,-33 24.99,-60.88 56.19,-67.87 31.21,-7 62.75,8.94 79.79,37.4 12.4,20.69 28.67,35.07 50.72,44.83 10.09,4.47 16.9,11.05 18.77,19.38 4.97,22.18 -26.95,48.22 -71.3,58.15 -8.21,1.85 -16.26,2.99 -23.99,3.53 -11.95,0.8 -22.04,3.07 -33.18,7.43 z"
       id="path943" /><path
       class="fil0"
       d="m 15.25,266.3 c 12.22,-2.73 25.9,11.93 30.56,32.72 4.66,20.79 -1.46,39.89 -13.67,42.63 C 19.92,344.39 6.24,329.72 1.58,308.93 -3.08,288.14 3.04,269.04 15.25,266.3 Z"
       id="path945" /><path
       class="fil0"
       d="m 211.45,222.32 c 12.22,-2.73 25.9,11.93 30.56,32.72 4.66,20.79 -1.46,39.89 -13.67,42.63 -12.22,2.74 -25.91,-11.93 -30.57,-32.72 -4.65,-20.79 1.46,-39.89 13.68,-42.63 z"
       id="path947" /><path
       class="fil0"
       d="m 60.24,183.76 c 14.41,-3.23 30.57,14.06 36.07,38.62 5.51,24.56 -1.73,47.1 -16.14,50.33 -14.41,3.23 -30.57,-14.07 -36.08,-38.63 -5.5,-24.56 1.74,-47.09 16.15,-50.32 z"
       id="path949" /><path
       class="fil0"
       d="m 135.56,166.87 c 14.41,-3.23 30.58,14.07 36.08,38.63 5.5,24.56 -1.73,47.1 -16.14,50.33 -14.41,3.23 -30.58,-14.07 -36.08,-38.63 -5.51,-24.56 1.73,-47.1 16.14,-50.33 z"
       id="path951" /><path
       class="fil0"
       d="m 358.27,258.26 c -7.39,-0.83 -15.11,-2.23 -22.94,-4.32 -42.37,-11.3 -72.13,-37.64 -66.48,-58.83 2.13,-7.96 8.94,-14.08 18.85,-17.97 21.64,-8.56 37.88,-21.79 50.64,-41.24 17.53,-26.77 48.56,-40.91 78.37,-32.96 29.81,7.96 49.67,35.68 51.53,67.62 1.38,23.23 8.87,42.8 23.37,61 6.63,8.33 9.52,17 7.4,24.95 -5.66,21.19 -44.58,29.21 -86.95,17.9 -7.85,-2.09 -15.25,-4.7 -22.1,-7.7 -10.58,-4.65 -20.22,-7.22 -31.69,-8.45 z"
       id="path953" /><path
       class="fil0"
       d="m 330.16,51.03 c 11.67,3.11 16.83,21.76 11.53,41.62 -5.3,19.87 -19.06,33.47 -30.73,30.36 -11.67,-3.12 -16.83,-21.77 -11.53,-41.63 5.3,-19.86 19.06,-33.47 30.73,-30.35 z"
       id="path955" /><path
       class="fil0"
       d="m 517.6,101.03 c 11.67,3.12 16.83,21.77 11.53,41.63 -5.3,19.86 -19.06,33.47 -30.73,30.36 -11.67,-3.12 -16.83,-21.77 -11.53,-41.63 5.3,-19.87 19.06,-33.47 30.73,-30.36 z"
       id="path957" /><path
       class="fil0"
       d="M 405.49,0.52 C 419.26,4.2 425.36,26.2 419.1,49.67 412.84,73.13 396.59,89.17 382.82,85.5 369.05,81.83 362.95,59.82 369.21,36.36 375.47,12.89 391.73,-3.15 405.49,0.52 Z"
       id="path959" /><path
       class="fil0"
       d="m 477.46,19.72 c 13.76,3.67 19.86,25.68 13.6,49.15 -6.26,23.46 -22.51,39.5 -36.28,35.83 -13.76,-3.67 -19.87,-25.68 -13.6,-49.14 6.26,-23.47 22.51,-39.51 36.28,-35.84 z"
       id="path961" /></g></svg>
